<svg width="37" height="36" viewBox="0 0 37 36" fill="none" xmlns="http://www.w3.org/2000/svg">
<g id="Group 1160444053">
<path id="Vector" d="M5.41748 19.1391L6.66426 20.3848L10.364 16.6883L7.15613 20.8762L8.31523 22.0322L11.7369 18.6135L8.77075 22.4895L9.35885 23.077L12.2331 20.2053L10.4281 24.1454L10.8986 24.6133L14.3203 21.1946L11.3541 25.0706L12.2652 25.9808L15.5564 23.6176L12.7271 26.4424L13.8477 27.5641L16.4011 25.0129L14.7972 28.5128L15.4858 29.2009L19.47 26.3377L16.0483 29.7564L16.8481 30.5555L23.2852 24.124L11.8546 12.7076L5.41748 19.1391ZM34.9553 1.04757C33.6059 -0.300699 31.3198 -0.396851 30.0687 1.04757C29.1555 2.11592 27.5666 4.42357 26.647 5.47269C25.4393 6.86865 24.1321 8.17546 22.7356 9.38287C21.7336 10.3797 20.3772 10.9394 18.9631 10.9394C17.5491 10.9394 16.1927 10.3797 15.1907 9.38287L12.9645 11.5986L24.393 23.0194L26.6128 20.8015C25.6151 19.8003 25.0549 18.4451 25.0549 17.0323C25.0549 15.6195 25.6151 14.2643 26.6128 13.2631C27.8208 11.8682 29.128 10.5621 30.5242 9.35509C31.5764 8.4299 33.8946 6.84232 34.9553 5.93636C36.401 4.68425 36.3048 2.39583 34.9553 1.04757ZM33.8262 4.87228C33.5593 5.13867 33.2194 5.32004 32.8494 5.39345C32.4794 5.46686 32.0959 5.42903 31.7475 5.28473C31.399 5.14042 31.1012 4.89613 30.8916 4.58274C30.6821 4.26934 30.5702 3.90091 30.5702 3.52401C30.5702 3.14712 30.6821 2.77869 30.8916 2.46529C31.1012 2.15189 31.399 1.9076 31.7475 1.7633C32.0959 1.619 32.4794 1.58116 32.8494 1.65457C33.2194 1.72799 33.5593 1.90935 33.8262 2.17575C34.0037 2.35261 34.1446 2.56274 34.2407 2.7941C34.3368 3.02547 34.3863 3.27351 34.3863 3.52401C34.3863 3.77452 34.3368 4.02256 34.2407 4.25392C34.1446 4.48528 34.0037 4.69542 33.8262 4.87228Z" fill="#F9AF15"/>
<path id="Vector_2" d="M33.3879 8.65437C32.0855 9.57529 29.9897 11.353 27.3764 14.1756L31.938 12.1522C33.3299 15.4554 33.5016 19.1454 32.4224 22.5634C31.3431 25.9814 29.0832 28.905 26.0461 30.8121C23.0089 32.7193 19.3923 33.486 15.8417 32.9752C12.2911 32.4645 9.03779 30.7097 6.66244 28.024C4.2871 25.3383 2.94437 21.8965 2.87397 18.3131C2.80356 14.7298 4.01005 11.238 6.27807 8.46123C8.54609 5.68444 11.728 3.80337 15.2558 3.15382C18.7835 2.50427 22.4275 3.12852 25.5372 4.91513L25.7361 4.68863C26.1638 4.21428 26.7519 3.40661 27.3422 2.62457C23.577 0.343747 19.1058 -0.479627 14.7742 0.31014C10.4425 1.09991 6.55064 3.44807 3.83441 6.91063C1.11818 10.3732 -0.23411 14.7101 0.0332442 19.1014C0.300598 23.4926 2.16906 27.6338 5.28534 30.7419C8.40161 33.8499 12.5497 35.7094 16.9452 35.9688C21.3407 36.2281 25.679 34.8693 29.1398 32.1493C32.6005 29.4293 34.9438 25.5367 35.7266 21.2074C36.5094 16.8781 35.6774 12.4123 33.3879 8.65437Z" fill="#F9AF15"/>
</g>
</svg>
