<svg width="115" height="50" viewBox="0 0 115 50" fill="none" xmlns="http://www.w3.org/2000/svg">
<g id="&#208;&#161;&#208;&#187;&#208;&#190;&#208;&#185; 3">
<g id="Layer 2">
<path id="Vector" d="M7.52417 26.5821L9.25581 28.3122L14.3943 23.1782L9.93896 28.9948L11.5488 30.6003L16.3012 25.852L12.1815 31.2354L12.9983 32.0515L16.9903 28.0629L14.4834 33.5353L15.1369 34.1852L19.8892 29.437L15.7695 34.8203L17.0348 36.0845L21.606 32.8023L17.6764 36.7255L19.2328 38.2835L22.7793 34.7402L20.5516 39.6012L21.508 40.5568L27.0415 36.5801L22.2892 41.3283L23.4 42.4382L32.3404 33.5056L16.4646 17.6494L7.52417 26.5821ZM48.5489 1.45495C46.6747 -0.417637 43.4996 -0.551182 41.762 1.45495C40.4937 2.93878 38.2868 6.14384 37.0096 7.60096C35.3322 9.53979 33.5167 11.3548 31.5771 13.0318C30.1854 14.4163 28.3015 15.1936 26.3376 15.1936C24.3737 15.1936 22.4898 14.4163 21.0981 13.0318L18.0061 16.1092L33.879 31.9713L36.9621 28.8909C35.5764 27.5005 34.7984 25.6182 34.7984 23.656C34.7984 21.6938 35.5764 19.8115 36.9621 18.421C38.6399 16.4836 40.4555 14.6696 42.3946 12.9932C43.856 11.7082 47.0757 9.50323 48.5489 8.24494C50.5568 6.5059 50.4232 3.32754 48.5489 1.45495ZM46.9807 6.76705C46.61 7.13704 46.138 7.38894 45.6241 7.4909C45.1102 7.59287 44.5776 7.54032 44.0936 7.3399C43.6096 7.13948 43.1959 6.80018 42.9049 6.36491C42.6139 5.92964 42.4586 5.41792 42.4586 4.89446C42.4586 4.371 42.6139 3.85929 42.9049 3.42401C43.1959 2.98874 43.6096 2.64945 44.0936 2.44903C44.5776 2.24861 45.1102 2.19606 45.6241 2.29802C46.138 2.39998 46.61 2.65188 46.9807 3.02187C47.2273 3.26751 47.4229 3.55936 47.5564 3.8807C47.69 4.20204 47.7587 4.54654 47.7587 4.89446C47.7587 5.24238 47.69 5.58689 47.5564 5.90822C47.4229 6.22956 47.2273 6.52141 46.9807 6.76705Z" fill="#F9AF15"/>
<path id="Vector_2" d="M46.3721 12.0199C44.5632 13.2989 41.6524 15.768 38.0228 19.6883L44.3583 16.8779C46.2915 21.4657 46.53 26.5907 45.031 31.338C43.5321 36.0852 40.3933 40.1457 36.1751 42.7945C31.9569 45.4434 26.9337 46.5082 22.0024 45.7988C17.071 45.0895 12.5525 42.6522 9.25339 38.9221C5.9543 35.1919 4.08941 30.4117 3.99162 25.4348C3.89383 20.4579 5.56952 15.6083 8.71954 11.7516C11.8696 7.89497 16.2889 5.28237 21.1886 4.38021C26.0882 3.47806 31.1494 4.34507 35.4684 6.82647L35.7446 6.5119C36.3387 5.85308 37.1555 4.73131 37.9753 3.64514C32.7458 0.477331 26.5359 -0.666244 20.5197 0.430656C14.5035 1.52756 9.09811 4.7889 5.32557 9.598C1.55303 14.4071 -0.325152 20.4306 0.0461725 26.5296C0.417497 32.6285 3.01259 38.3802 7.34074 42.6969C11.6689 47.0137 17.4301 49.5963 23.535 49.9566C29.6399 50.3168 35.6653 48.4295 40.4719 44.6518C45.2785 40.874 48.5331 35.4675 49.6203 29.4546C50.7075 23.4417 49.5519 17.2392 46.3721 12.0199Z" fill="#F9AF15"/>
<path id="Vector_3" d="M59.3699 30.7485V6.3277H77.91V12.7616H66.7717V15.1772H77.6546V21.6319H66.7776V30.7485H59.3699Z" fill="#1D1D1B"/>
<path id="Vector_4" d="M79.9685 30.7485V6.3277H87.3703V30.7485H79.9685Z" fill="#1D1D1B"/>
<path id="Vector_5" d="M105.251 30.7485L100.781 23.2789L96.3105 30.7485H87.5869L95.758 18.228L88.1364 6.3277H96.8243L100.781 13.2839L104.666 6.3277H113.428L105.806 18.1983L113.977 30.7574L105.251 30.7485Z" fill="#1D1D1B"/>
<path id="Vector_6" d="M59.1318 43.474V33.7252H63.0525C65.0129 33.7252 66.1119 35.0696 66.1119 36.6632C66.1119 38.2568 64.9832 39.6012 63.0525 39.6012H60.3467V43.474H59.1318ZM64.8525 36.6484C64.8525 35.5533 64.0624 34.7906 62.907 34.7906H60.3467V38.5209H62.907C64.0624 38.5209 64.8525 37.7583 64.8525 36.6632V36.6484Z" fill="#1D1D1B"/>
<path id="Vector_7" d="M67.2792 43.474V33.7252H73.6741V34.8054H68.494V37.9482H73.5701V39.0314H68.494V42.3937H73.6741V43.474H67.2792Z" fill="#1D1D1B"/>
<path id="Vector_8" d="M83.5027 43.474V35.4613L80.182 43.474H79.686L76.3801 35.4613V43.474H75.1653V33.7252H76.894L79.9206 41.0642L82.9651 33.7252H84.7057V43.474H83.5027Z" fill="#1D1D1B"/>
<path id="Vector_9" d="M86.1643 38.6071C86.1643 35.7285 88.1098 33.5621 91.0087 33.5621C93.9077 33.5621 95.8502 35.7255 95.8502 38.6071C95.8502 41.4887 93.8899 43.6521 91.0087 43.6521C88.1276 43.6521 86.1643 41.4857 86.1643 38.6071ZM94.5908 38.6071C94.5908 36.3279 93.1859 34.6453 91.0087 34.6453C88.8316 34.6453 87.4237 36.3279 87.4237 38.6071C87.4237 40.8862 88.8137 42.5689 91.0087 42.5689C93.2037 42.5689 94.5908 40.8744 94.5908 38.6071Z" fill="#1D1D1B"/>
<path id="Vector_10" d="M104.221 43.474V39.0017H98.5267V43.474H97.3119V33.7252H98.5267V37.9215H104.221V33.7252H105.435V43.474H104.221Z" fill="#1D1D1B"/>
<path id="Vector_11" d="M109.7 43.474V34.8054H106.614V33.7252H114.022V34.8054H110.915V43.474H109.7Z" fill="#1D1D1B"/>
</g>
</g>
</svg>
